<mxfile host="app.diagrams.net" modified="2023-04-05T18:21:01.876Z" agent="Mozilla/5.0 (Macintosh; Intel Mac OS X 10_15_7) AppleWebKit/537.36 (KHTML, like Gecko) Chrome/111.0.0.0 Safari/537.36" etag="qcrepJ9YsEa7GsKVtUxd" version="21.1.2" type="github">
  <diagram name="第 1 页" id="KKI3bz5QrESm0OmyFywL">
    <mxGraphModel dx="1242" dy="796" grid="1" gridSize="10" guides="1" tooltips="1" connect="1" arrows="1" fold="1" page="1" pageScale="1" pageWidth="827" pageHeight="1169" math="0" shadow="0">
      <root>
        <mxCell id="0" />
        <mxCell id="1" parent="0" />
        <mxCell id="Y0UtzTBV2rvMZrIoK4xg-12" style="rounded=0;orthogonalLoop=1;jettySize=auto;html=1;entryX=0;entryY=0.5;entryDx=0;entryDy=0;strokeWidth=2;" edge="1" parent="1" source="Y0UtzTBV2rvMZrIoK4xg-1" target="Y0UtzTBV2rvMZrIoK4xg-6">
          <mxGeometry relative="1" as="geometry" />
        </mxCell>
        <mxCell id="Y0UtzTBV2rvMZrIoK4xg-17" style="edgeStyle=none;rounded=0;orthogonalLoop=1;jettySize=auto;html=1;entryX=0;entryY=0.5;entryDx=0;entryDy=0;exitX=1;exitY=0.5;exitDx=0;exitDy=0;strokeWidth=2;" edge="1" parent="1" source="Y0UtzTBV2rvMZrIoK4xg-1" target="Y0UtzTBV2rvMZrIoK4xg-10">
          <mxGeometry relative="1" as="geometry" />
        </mxCell>
        <mxCell id="Y0UtzTBV2rvMZrIoK4xg-1" value="&lt;font color=&quot;#ffffff&quot; style=&quot;font-size: 15px;&quot;&gt;&lt;b&gt;新话题&lt;/b&gt;&lt;/font&gt;" style="rounded=1;whiteSpace=wrap;html=1;fillColor=#FF6695;strokeColor=#FF6695;strokeWidth=2;" vertex="1" parent="1">
          <mxGeometry x="105" y="130" width="90" height="40" as="geometry" />
        </mxCell>
        <mxCell id="Y0UtzTBV2rvMZrIoK4xg-13" style="rounded=0;orthogonalLoop=1;jettySize=auto;html=1;entryX=0;entryY=0.5;entryDx=0;entryDy=0;strokeWidth=2;" edge="1" parent="1" source="Y0UtzTBV2rvMZrIoK4xg-2" target="Y0UtzTBV2rvMZrIoK4xg-7">
          <mxGeometry relative="1" as="geometry" />
        </mxCell>
        <mxCell id="Y0UtzTBV2rvMZrIoK4xg-18" style="edgeStyle=none;rounded=0;orthogonalLoop=1;jettySize=auto;html=1;entryX=0;entryY=0.5;entryDx=0;entryDy=0;exitX=1;exitY=0.5;exitDx=0;exitDy=0;strokeWidth=2;" edge="1" parent="1" source="Y0UtzTBV2rvMZrIoK4xg-2" target="Y0UtzTBV2rvMZrIoK4xg-6">
          <mxGeometry relative="1" as="geometry">
            <mxPoint x="200" y="290" as="sourcePoint" />
          </mxGeometry>
        </mxCell>
        <mxCell id="Y0UtzTBV2rvMZrIoK4xg-2" value="&lt;font color=&quot;#ffffff&quot; style=&quot;font-size: 15px;&quot;&gt;&lt;b&gt;港澳台/频道&lt;/b&gt;&lt;/font&gt;" style="rounded=1;whiteSpace=wrap;html=1;fillColor=#FF6695;strokeColor=#FF6695;strokeWidth=2;" vertex="1" parent="1">
          <mxGeometry x="100" y="240" width="100" height="40" as="geometry" />
        </mxCell>
        <mxCell id="Y0UtzTBV2rvMZrIoK4xg-14" style="edgeStyle=orthogonalEdgeStyle;rounded=0;orthogonalLoop=1;jettySize=auto;html=1;entryX=0;entryY=0.5;entryDx=0;entryDy=0;strokeWidth=2;" edge="1" parent="1" source="Y0UtzTBV2rvMZrIoK4xg-3" target="Y0UtzTBV2rvMZrIoK4xg-11">
          <mxGeometry relative="1" as="geometry">
            <mxPoint x="390" y="410" as="targetPoint" />
          </mxGeometry>
        </mxCell>
        <mxCell id="Y0UtzTBV2rvMZrIoK4xg-3" value="&lt;font color=&quot;#ffffff&quot; style=&quot;font-size: 15px;&quot;&gt;&lt;b&gt;校园&lt;/b&gt;&lt;/font&gt;" style="rounded=1;whiteSpace=wrap;html=1;fillColor=#FF6695;strokeColor=#FF6695;strokeWidth=2;" vertex="1" parent="1">
          <mxGeometry x="100" y="390" width="100" height="40" as="geometry" />
        </mxCell>
        <mxCell id="Y0UtzTBV2rvMZrIoK4xg-6" value="&lt;font color=&quot;#ffffff&quot; style=&quot;font-size: 15px;&quot;&gt;&lt;b&gt;规则变动频繁，每次变动从产品提需求到研发上线周期长、效率低&lt;/b&gt;&lt;/font&gt;" style="rounded=0;whiteSpace=wrap;html=1;fillColor=#0CB6F2;strokeColor=#0CB6F2;strokeWidth=2;" vertex="1" parent="1">
          <mxGeometry x="400" y="180" width="450" height="40" as="geometry" />
        </mxCell>
        <mxCell id="Y0UtzTBV2rvMZrIoK4xg-7" value="&lt;font color=&quot;#ffffff&quot;&gt;&lt;span style=&quot;font-size: 15px;&quot;&gt;&lt;b&gt;产品/运营需要对品类配置动态规则&lt;/b&gt;&lt;/span&gt;&lt;/font&gt;" style="rounded=0;whiteSpace=wrap;html=1;fillColor=#0CB6F2;strokeColor=#0CB6F2;strokeWidth=2;" vertex="1" parent="1">
          <mxGeometry x="400" y="280" width="240" height="40" as="geometry" />
        </mxCell>
        <mxCell id="Y0UtzTBV2rvMZrIoK4xg-10" value="&lt;font color=&quot;#ffffff&quot; style=&quot;font-size: 15px;&quot;&gt;&lt;b&gt;依赖的接口繁多，规则编排复杂，代码冗长且难以维护&lt;/b&gt;&lt;/font&gt;" style="rounded=0;whiteSpace=wrap;html=1;fillColor=#0CB6F2;strokeColor=#0CB6F2;strokeWidth=2;" vertex="1" parent="1">
          <mxGeometry x="400" y="70" width="380" height="40" as="geometry" />
        </mxCell>
        <mxCell id="Y0UtzTBV2rvMZrIoK4xg-11" value="&lt;font color=&quot;#ffffff&quot; style=&quot;font-size: 15px;&quot;&gt;&lt;b&gt;基于gengine对规则的执行简单封装，抽象度低、普适性差、无法推广至其他业务&lt;/b&gt;&lt;/font&gt;" style="rounded=0;whiteSpace=wrap;html=1;fillColor=#0CB6F2;strokeColor=#0CB6F2;strokeWidth=2;" vertex="1" parent="1">
          <mxGeometry x="400" y="392.5" width="550" height="35" as="geometry" />
        </mxCell>
      </root>
    </mxGraphModel>
  </diagram>
</mxfile>
